<?xml version="1.0" standalone="no"?>
<!DOCTYPE svg PUBLIC "-//W3C//DTD SVG 20010904//EN"
 "http://www.w3.org/TR/2001/REC-SVG-20010904/DTD/svg10.dtd">
<svg version="1.0" xmlns="http://www.w3.org/2000/svg"
 width="225.000000pt" height="225.000000pt" viewBox="0 0 225.000000 225.000000"
 preserveAspectRatio="xMidYMid meet">

<g transform="translate(0.000000,225.000000) scale(0.100000,-0.100000)"
fill="#000000" stroke="none">
<path d="M567 1683 c-4 -3 -7 -258 -7 -565 l0 -558 105 0 105 0 0 293 c0 220
3 297 13 309 6 8 138 82 292 163 154 82 288 155 298 163 14 12 17 32 17 109
l0 93 -408 0 c-225 0 -412 -3 -415 -7z"/>
<path d="M1488 1395 c-3 -279 -4 -295 -23 -314 -11 -10 -141 -83 -290 -161
-148 -79 -280 -152 -292 -163 -21 -18 -23 -30 -23 -109 l0 -88 415 0 415 0 0
565 0 565 -100 0 -99 0 -3 -295z"/>
</g>
</svg>
